<svg fill="none" height="10.6100" viewBox="375.0680 8732.9700 13.8390 10.6100" width="13.8390" xmlns="http://www.w3.org/2000/svg"><path d="M388.657 8734.44C388.824 8734.6 388.907 8734.8 388.907 8735.04C388.907 8735.28 388.824 8735.48 388.657 8735.65L382.193 8742.11L380.978 8743.33C380.812 8743.5 380.609 8743.58 380.371 8743.58C380.133 8743.58 379.931 8743.5 379.764 8743.33L378.55 8742.11L375.318 8738.88C375.151 8738.72 375.068 8738.51 375.068 8738.27C375.068 8738.04 375.151 8737.83 375.318 8737.67L376.532 8736.45C376.699 8736.29 376.901 8736.2 377.139 8736.2C377.377 8736.2 377.58 8736.29 377.746 8736.45L380.371 8739.09L386.228 8733.22C386.395 8733.05 386.597 8732.97 386.836 8732.97C387.074 8732.97 387.276 8733.05 387.443 8733.22L388.657 8734.44Z" fill="#FF5A3C" xmlns="http://www.w3.org/2000/svg"></path>
</svg>
