<svg fill="none" height="36.0000" viewBox="375.0000 9594.0000 36.0000 36.0000" width="36.0000" xmlns="http://www.w3.org/2000/svg"><rect height="35" rx="3.5" stroke="#FF5A3C" width="35" x="375.5" xmlns="http://www.w3.org/2000/svg" y="9594.5"></rect>
<path d="M388.484 9608.97C389.303 9608.97 389.967 9608.3 389.967 9607.48C389.967 9606.66 389.303 9606 388.484 9606C387.664 9606 387 9606.66 387 9607.48C387 9608.3 387.664 9608.97 388.484 9608.97Z" fill="#FF5A3C" xmlns="http://www.w3.org/2000/svg"></path>
<path d="M389.72 9609.96H387.247C387.111 9609.96 387 9610.07 387 9610.21V9617.62C387 9617.76 387.111 9617.87 387.247 9617.87H389.72C389.856 9617.87 389.967 9617.76 389.967 9617.62V9610.21C389.967 9610.07 389.856 9609.96 389.72 9609.96Z" fill="#FF5A3C" xmlns="http://www.w3.org/2000/svg"></path>
<path d="M397.088 9609.55C396.031 9609.18 394.709 9609.5 393.917 9610.07C393.89 9609.97 393.793 9609.89 393.677 9609.89H391.205C391.068 9609.89 390.958 9610 390.958 9610.13V9617.55C390.958 9617.69 391.068 9617.8 391.205 9617.8H393.677C393.814 9617.8 393.925 9617.69 393.925 9617.55V9612.22C394.324 9611.88 394.839 9611.77 395.26 9611.95C395.669 9612.12 395.903 9612.54 395.903 9613.1V9617.55C395.903 9617.69 396.013 9617.8 396.15 9617.8H398.623C398.759 9617.8 398.87 9617.69 398.87 9617.55V9612.6C398.842 9610.57 397.886 9609.82 397.088 9609.55Z" fill="#FF5A3C" xmlns="http://www.w3.org/2000/svg"></path>
</svg>
